<svg width="60" height="60" viewBox="0 0 60 60" fill="none" xmlns="http://www.w3.org/2000/svg">
<g clip-path="url(#clip0_129_1506)">
<path d="M33.1869 10.9156C27.0471 4.77594 17.0573 4.77607 10.9177 10.9156C7.94356 13.8898 6.30566 17.844 6.30566 22.0502C6.30566 26.2563 7.94356 30.2105 10.9177 33.1847C13.9878 36.2549 18.0194 37.7894 22.0523 37.7894C26.0842 37.7894 30.1175 36.2542 33.1869 33.1847C36.1611 30.2105 37.799 26.2563 37.799 22.0502C37.799 17.844 36.1611 13.8897 33.1869 10.9156ZM31.6999 31.6977C26.3804 37.0174 17.7244 37.0172 12.4047 31.6977C9.82776 29.1207 8.40857 25.6944 8.40857 22.0501C8.40857 18.4056 9.82776 14.9795 12.4047 12.4025C15.0646 9.74273 18.5585 8.41278 22.0523 8.41278C25.5462 8.41278 29.0401 9.74273 31.6999 12.4025C34.2769 14.9795 35.6961 18.4056 35.6961 22.0501C35.6961 25.6944 34.2769 29.1207 31.6999 31.6977Z" fill="#FF5147"/>
<path d="M22.0524 9.5979C21.4718 9.5979 21.001 10.0687 21.001 10.6494C21.001 11.23 21.4718 11.7008 22.0524 11.7008C27.759 11.7008 32.4019 16.3435 32.4019 22.0502C32.4019 22.6309 32.8726 23.1017 33.4533 23.1017C34.034 23.1017 34.5048 22.6309 34.5048 22.0502C34.5048 15.1839 28.9187 9.5979 22.0524 9.5979Z" fill="#FF5147"/>
<path d="M57.921 47.8715L41.8434 31.794C43.3204 28.8008 44.1022 25.4857 44.1022 22.0502C44.1022 16.1604 41.8086 10.6232 37.6438 6.45841C33.4791 2.29361 27.9419 0 22.0521 0C16.1622 0 10.625 2.29361 6.46036 6.45827C2.29556 10.6231 0.00195312 16.1603 0.00195312 22.0501C0.00195312 27.9399 2.29556 33.4771 6.46036 37.6418C10.625 41.8066 16.1622 44.1002 22.0521 44.1002C25.4877 44.1002 28.8026 43.3185 31.7959 41.8416L47.8733 57.919C49.2153 59.261 50.9994 60 52.8973 60C54.7949 60 56.5792 59.261 57.9211 57.919C60.6911 55.1489 60.6911 50.6417 57.921 47.8715ZM9.24841 34.8539C5.82844 31.4339 3.94489 26.8868 3.94489 22.0502C3.94489 17.2136 5.82844 12.6666 9.24841 9.24646C12.6684 5.82648 17.2154 3.94294 22.0521 3.94294C26.8886 3.94294 31.4357 5.82648 34.8557 9.24646C38.2757 12.6664 40.1592 17.2136 40.1592 22.0501C40.1592 26.8867 38.2758 31.4338 34.8557 34.8538C31.4357 38.2737 26.8886 40.1573 22.0521 40.1573C17.2154 40.1573 12.6684 38.2739 9.24841 34.8539ZM55.1329 55.131C54.5357 55.7282 53.7417 56.0571 52.8972 56.0571C52.0526 56.0571 51.2586 55.7282 50.6614 55.131L35.2492 39.7188C36.0883 39.0894 36.8888 38.3969 37.6438 37.6419C38.3987 36.887 39.0912 36.0865 39.7206 35.2474L55.1328 50.6596C56.3656 51.8923 56.3656 53.8983 55.1329 55.131Z" fill="#FF5147"/>
</g>
<defs>
<clipPath id="clip0_129_1506">
<rect width="60" height="60" fill="white"/>
</clipPath>
</defs>
</svg>
